<?xml version="1.0" standalone="no"?><svg xmlns="http://www.w3.org/2000/svg" viewBox="0 0 1440 320"><path fill="#0099ff" fill-opacity="1" d="M0,32L24,42.7C48,53,96,75,144,80C192,85,240,75,288,80C336,85,384,107,432,138.7C480,171,528,213,576,208C624,203,672,149,720,138.7C768,128,816,160,864,181.3C912,203,960,213,1008,192C1056,171,1104,117,1152,96C1200,75,1248,85,1296,122.7C1344,160,1392,224,1416,256L1440,288L1440,0L1416,0C1392,0,1344,0,1296,0C1248,0,1200,0,1152,0C1104,0,1056,0,1008,0C960,0,912,0,864,0C816,0,768,0,720,0C672,0,624,0,576,0C528,0,480,0,432,0C384,0,336,0,288,0C240,0,192,0,144,0C96,0,48,0,24,0L0,0Z"></path></svg>